# xmcd
#
# Track frame offsets:
#	150
#	11583
#	24680
#	38186
#	58403
#	71162
#	80269
#	94788
#	108252
#	123363
#	133135
#	145730
#	157499
#	170055
#	181168
#	195230
#	208876
#	223130
#	235862
#	246371
#	262113
#	277284
#	285868
#
# Disc length: 4124 seconds
#
# Revision: 1
# Processed by: cddbd v1.5.2PL0 Copyright (c) Steve Scherf et al.
# Submitted via: EZCDAudioConverter 2.1.7.1
#
DISCID=68101a17
DTITLE=Beach Boys - Pet Sounds 50th 4/4
DYEAR=2016
DGENRE=
TTITLE0=Wouldn't It Be Nice [Michigan State University, October 22, 1966]
TTITLE1=Sloop John B [Michigan State University, October 22, 1966]
TTITLE2=God Only Knows [Michigan State University, October 22, 1966]
TTITLE3=Good Vibrations [Daughters of the American Revolution Constitution Hal
TTITLE3=l, Washington DC, November 19, 1967]
TTITLE4=God Only Knows [Daughters of the American Revolution Constitution Hall
TTITLE4=, Washington DC, November 19, 1967]
TTITLE5=Wouldn't It Be Nice [Daughters of the American Revolution Constitution
TTITLE5=Hall, Washington DC, November 19, 1967]
TTITLE6=God Only Knows [Carnegie Hall, New York, November 23, 1972 (2nd Show)]
TTITLE7=God Only Knows [Jamaican World Music Festival, Montego Bay, Jamaica, N
TTITLE7=ovember 26, 1982]
TTITLE8=Sloop John B [Universal Studios, Universal City, California, May 23, 1
TTITLE8=989]
TTITLE9=Caroline No [Paramount Theater, New York City, November 26, 1993]
TTITLE10=You Still Believe In Me [Paramount Theater, New York City, November 2
TTITLE10=6, 1993]
TTITLE11=Wouldn't It Be Nice [Stack-O-Vocals]
TTITLE12=You Still Believe In Me [Stack-O-Vocals]
TTITLE13=That's Not Me [Stack-O-Vocals]
TTITLE14=Don't Talk (Put Your Head On My Shoulder) [Stack-O-Vocals]
TTITLE15=I'm Waiting For The Day [Stack-O-Vocals]
TTITLE16=Sloop John B [Stack-O-Vocals]
TTITLE17=God Only Knows [Stack-O-Vocals]
TTITLE18=I Know There's An Answer [Stack-O-Vocals]
TTITLE19=Here Today [Stack-O-Vocals]
TTITLE20=I Just Wasn't Made For These Times [Stack-O-Vocals]
TTITLE21=Caroline No [Stack-O-Vocals]
TTITLE22=Good Vibrations [Master Track with Partial Vocal]
EXTD=
EXTT0=
EXTT1=
EXTT2=
EXTT3=
EXTT4=
EXTT5=
EXTT6=
EXTT7=
EXTT8=
EXTT9=
EXTT10=
EXTT11=
EXTT12=
EXTT13=
EXTT14=
EXTT15=
EXTT16=
EXTT17=
EXTT18=
EXTT19=
EXTT20=
EXTT21=
EXTT22=
PLAYORDER=
